<svg xmlns="http://www.w3.org/2000/svg" width="28" height="28" id="database">
  <circle cx="14" cy="14" r="14" fill="#ef4c45" fill-rule="evenodd"></circle>
  <path fill="#fff" d="M8.16 8C7.52 8 7 8.52 7 9.16v2.68c0 .25.096.47.232.66-.136.19-.232.41-.232.66v2.68c0 .25.096.47.232.66-.136.19-.232.41-.232.66v2.68c0 .64.52 1.16 1.16 1.16h11.68c.64 0 1.16-.52 1.16-1.16v-2.68c0-.25-.096-.47-.232-.66.136-.19.232-.41.232-.66v-2.68c0-.25-.096-.47-.232-.66.136-.19.232-.41.232-.66V9.16C21 8.52 20.48 8 19.84 8H8.16Zm0 1h11.68a.16.16 0 0 1 .16.16v2.68a.16.16 0 0 1-.16.16H8.16a.16.16 0 0 1-.16-.16V9.16A.16.16 0 0 1 8.16 9ZM9 10v1h4v-1H9zm9 0v1h1v-1h-1zm-9.84 3h11.68a.16.16 0 0 1 .16.16v2.68a.16.16 0 0 1-.16.16H8.16a.16.16 0 0 1-.16-.16v-2.68a.16.16 0 0 1 .16-.16ZM9 14v1h4v-1H9zm9 .074v1h1v-1h-1zM8.16 17h11.68a.16.16 0 0 1 .16.16v2.68a.16.16 0 0 1-.16.16H8.16a.16.16 0 0 1-.16-.16v-2.68a.16.16 0 0 1 .16-.16ZM9 18v1h4v-1H9zm9 .125v1h1v-1h-1z"></path>
</svg>
